<svg height="528.67134" viewBox="0 0 873 528.67134" width="873" xmlns="http://www.w3.org/2000/svg"><path d="m1022.88857 185.66433h-607a8.72766 8.72766 0 0 0 -8.71972 8.72v411.31998a8.72766 8.72766 0 0 0 8.71972 8.72h607a8.71242 8.71242 0 0 0 6.63037-3.06 2.04507 2.04507 0 0 0 .19-.24 8.16654 8.16654 0 0 0 1.25-2.11005 8.50717 8.50717 0 0 0 .65966-3.31v-411.3199a8.72953 8.72953 0 0 0 -8.73003-8.72003zm6.24024 420.04a6.17524 6.17524 0 0 1 -1.03028 3.42 6.44578 6.44578 0 0 1 -2.35986 2.12 6.1843 6.1843 0 0 1 -2.8501.69h-607a6.23758 6.23758 0 0 1 -6.23-6.23v-411.31997a6.23758 6.23758 0 0 1 6.23-6.23h607a6.23945 6.23945 0 0 1 6.24024 6.23z" fill="#3f3d56" transform="translate(-163.5 -185.66433)"/><path d="m244.91149 34.94921h621.95676v2.49281h-621.95676z" fill="#3f3d56"/><circle cx="266.1004" cy="18.6961" fill="#3f3d56" r="7.47844"/><circle cx="287.60091" cy="18.6961" fill="#3f3d56" r="7.47844"/><circle cx="309.10142" cy="18.6961" fill="#3f3d56" r="7.47844"/><path d="m956.61417 401.33567h-485a17.01916 17.01916 0 0 1 -17-17v-103a17.01917 17.01917 0 0 1 17-17h485a17.01917 17.01917 0 0 1 17 17v103a17.01916 17.01916 0 0 1 -17 17zm-485-135a15.017 15.017 0 0 0 -15 15v103a15.017 15.017 0 0 0 15 15h485a15.017 15.017 0 0 0 15-15v-103a15.017 15.017 0 0 0 -15-15z" fill="#f2f2f2" transform="translate(-163.5 -185.66433)"/><path d="m578.61417 587.33567h-107a17.01916 17.01916 0 0 1 -17-17v-76a17.01917 17.01917 0 0 1 17-17h107a17.01917 17.01917 0 0 1 17 17v76a17.01916 17.01916 0 0 1 -17 17zm-107-108a15.017 15.017 0 0 0 -15 15v76a15.017 15.017 0 0 0 15 15h107a15.017 15.017 0 0 0 15-15v-76a15.017 15.017 0 0 0 -15-15z" fill="#f2f2f2" transform="translate(-163.5 -185.66433)"/><path d="m956.61417 587.33567h-107a17.01916 17.01916 0 0 1 -17-17v-76a17.01917 17.01917 0 0 1 17-17h107a17.01917 17.01917 0 0 1 17 17v76a17.01916 17.01916 0 0 1 -17 17zm-107-108a15.017 15.017 0 0 0 -15 15v76a15.017 15.017 0 0 0 15 15h107a15.017 15.017 0 0 0 15-15v-76a15.017 15.017 0 0 0 -15-15z" fill="#f2f2f2" transform="translate(-163.5 -185.66433)"/><path d="m775.61417 587.33567h-107a17.01916 17.01916 0 0 1 -17-17v-76a17.01917 17.01917 0 0 1 17-17h107a17.01917 17.01917 0 0 1 17 17v76a17.01916 17.01916 0 0 1 -17 17zm-107-108a15.017 15.017 0 0 0 -15 15v76a15.017 15.017 0 0 0 15 15h107a15.017 15.017 0 0 0 15-15v-76a15.017 15.017 0 0 0 -15-15z" fill="#f2f2f2" transform="translate(-163.5 -185.66433)"/><path d="m715.47077 68.96771h1.9997v527.39706h-1.9997z" fill="#f2f2f2" transform="matrix(.23765555 -.97134949 .97134949 .23765555 59.56218 763.88528)"/><path d="m452.66318 331.83562h522.90198v2.00009h-522.90198z" fill="#f2f2f2" transform="matrix(.97065729 -.24046709 .24046709 .97065729 -222.58199 -4.17702)"/><path d="m976.61426 435.83545h-485a16.51867 16.51867 0 0 1 -16.5-16.5v-103a16.51866 16.51866 0 0 1 16.5-16.5h485a16.519 16.519 0 0 1 16.5 16.5v103a16.519 16.519 0 0 1 -16.5 16.5z" fill="#fff" transform="translate(-163.5 -185.66433)"/><path d="m720.78333 451.35523h2.00006v162.54779h-2.00006z" fill="#f2f2f2" transform="matrix(.61507 -.78848 .78848 .61507 -305.62597 588.47188)"/><path d="m642.28271 532.23806h161.99326v1.99991h-161.99326z" fill="#f2f2f2" transform="matrix(.78079737 -.62478434 .62478434 .78079737 -338.11403 383.11648)"/><path d="m523.78333 451.35523h2.00006v162.54779h-2.00006z" fill="#f2f2f2" transform="matrix(.61507 -.78848 .78848 .61507 -381.45807 433.1421)"/><path d="m445.28271 532.23806h161.99326v1.99991h-161.99326z" fill="#f2f2f2" transform="matrix(.78079737 -.62478434 .62478434 .78079737 -381.29695 260.03396)"/><path d="m901.78333 451.35523h2.00006v162.54779h-2.00006z" fill="#f2f2f2" transform="matrix(.61507 -.78848 .78848 .61507 -235.95283 731.18604)"/><path d="m823.28271 532.23806h161.99326v1.99991h-161.99326z" fill="#f2f2f2" transform="matrix(.78079737 -.62478434 .62478434 .78079737 -298.43835 496.20245)"/><g transform="translate(-163.5 -185.66433)"><path d="m790.61417 659.83567h-107a16.51867 16.51867 0 0 1 -16.5-16.5v-76a16.51868 16.51868 0 0 1 16.5-16.5h107a16.51867 16.51867 0 0 1 16.5 16.5v76a16.51866 16.51866 0 0 1 -16.5 16.5z" fill="#27ab5c"/><path d="m846.5 661.33567h-219a1 1 0 0 1 0-2h219a1 1 0 0 1 0 2z" fill="#ccc"/><path d="m383.5 714.33567h-219a1 1 0 0 1 0-2h219a1 1 0 0 1 0 2z" fill="#ccc"/><path d="m751.06693 599.83567h-28a8 8 0 0 1 0-16h28a8 8 0 0 1 0 16z" fill="#fff"/><path d="m767.61417 626.83567h-61a8 8 0 0 1 0-16h61a8 8 0 0 1 0 16z" fill="#fff"/><path d="m595.61417 601.83567h-107a16.51867 16.51867 0 0 1 -16.5-16.5v-76a16.51868 16.51868 0 0 1 16.5-16.5h107a16.51867 16.51867 0 0 1 16.5 16.5v76a16.51866 16.51866 0 0 1 -16.5 16.5z" fill="#27ab5c"/><path d="m556.06693 541.83567h-28a8 8 0 0 1 0-16h28a8 8 0 0 1 0 16z" fill="#fff"/><path d="m572.61417 568.83567h-61a8 8 0 1 1 0-16h61a8 8 0 0 1 0 16z" fill="#fff"/><path d="m979.61417 630.83567h-107a16.51867 16.51867 0 0 1 -16.5-16.5v-76a16.51868 16.51868 0 0 1 16.5-16.5h107a16.51867 16.51867 0 0 1 16.5 16.5v76a16.51866 16.51866 0 0 1 -16.5 16.5z" fill="#e6e6e6"/><path d="m940.06693 570.83567h-28a8 8 0 0 1 0-16h28a8 8 0 0 1 0 16z" fill="#fff"/><path d="m956.61417 597.83567h-61a8 8 0 0 1 0-16h61a8 8 0 0 1 0 16z" fill="#fff"/></g><path d="m301.345 346.608v-12.26l-47.288-5.833.001 18.095z" fill="#a0616a"/><path d="m449.5198 508.19005h38.53073a0 0 0 0 1 0 0v14.88687a0 0 0 0 1 0 0h-23.64387a14.88686 14.88686 0 0 1 -14.88686-14.88686 0 0 0 0 1 0-.00001z" fill="#2f2e41" transform="matrix(.00004573 1 -1 .00004573 820.89725 -138.83954)"/><path d="m90.755 514.923 12.26-.001 5.832-47.288-18.094.001z" fill="#a0616a"/><path d="m251.62834 697.0835h38.53073a0 0 0 0 1 0 0v14.88687a0 0 0 0 1 0 0h-23.64387a14.88686 14.88686 0 0 1 -14.88686-14.88686 0 0 0 0 1 0 0z" fill="#2f2e41" transform="matrix(-1 .00004573 -.00004573 -1 378.31956 1223.37718)"/><path d="m269.41666 683.54661c-.14575 0-.293-.00684-.44091-.01953l-16.69775-1.39063a5.1392 5.1392 0 0 1 -4.67261-5.77832l8.66553-67.39843a3.12648 3.12648 0 0 0 .00049-.78907l-13.76515-108.62988a5.1414 5.1414 0 0 1 5.02784-5.78613l48.69311-.69043a5.96065 5.96065 0 0 1 .74219.043l.133.03711 9.366 4.05371 136.16211 14.99609a5.15989 5.15989 0 0 1 4.48364 5.09961v17.53125a5.1426 5.1426 0 0 1 -5.73462 5.10742l-78.66211-9.16894a3.04256 3.04256 0 0 0 -1.18676.09082l-62.20459 17.14355a3.11972 3.11972 0 0 0 -2.23706 2.46l-22.62034 128.83685a5.1261 5.1261 0 0 1 -5.05201 4.25195z" fill="#2f2e41" transform="translate(-163.5 -185.66433)"/><circle cx="101.92655" cy="175.41285" fill="#2f2e41" r="33.56647"/><circle cx="90.18453" cy="140.08443" fill="#2f2e41" r="13.88957"/><path d="m235.16509 318.22524a13.891 13.891 0 0 1 12.44275-13.81447 14.04162 14.04162 0 0 0 -1.44678-.0751 13.88958 13.88958 0 0 0 0 27.77915 14.04163 14.04163 0 0 0 1.44678-.07511 13.891 13.891 0 0 1 -12.44275-13.81447z" fill="#2f2e41" transform="translate(-163.5 -185.66433)"/><path d="m269.38077 512.00559c-8.33813 0-17.613-2.30859-27.26855-8.74609l-.16357-.10938-.04541-.19042c-.08985-.377-8.97339-37.97754-9.14844-67.09961a32.06833 32.06833 0 0 1 13.19946-26.26856 31.12926 31.12926 0 0 1 28.15186-4.7334q.9375.29736 1.87988.6377a31.97955 31.97955 0 0 1 20.66943 32.77441c-1.2666 15.3877-1.77417 43.41309 9.05542 58.21973l.25342.34668-.3042.30273c-.20874.20801-15.27007 14.86621-36.2793 14.86621z" fill="#ccc" transform="translate(-163.5 -185.66433)"/><circle cx="101.83071" cy="186.09654" fill="#a0616a" r="24.56103"/><path d="m235.24607 370.14a10.05578 10.05578 0 0 1 -9.10343 12.44522l-9.47681 34.45532-12.23616-13.96819 10.87533-30.57785a10.11028 10.11028 0 0 1 19.94107-2.3545z" fill="#a0616a" transform="translate(-163.5 -185.66433)"/><path d="m197.99186 446.06126a9.51912 9.51912 0 0 1 -8.93262-12.709l18.01611-50.62109a5.04218 5.04218 0 0 1 6.00513-3.165l13.12915 3.47559a5.01331 5.01331 0 0 1 3.417 6.58984l-11.57861 31.21 19.63965-6.24707a12.77147 12.77147 0 1 1 5.75269 24.80274l-44.01563 6.55664a9.6247 9.6247 0 0 1 -1.43287.10735z" fill="#ccc" transform="translate(-163.5 -185.66433)"/><ellipse cx="105.83127" cy="168.29587" fill="#2f2e41" rx="23.14929" ry="13.88957"/><path d="m339.79819 520.17065a10.05576 10.05576 0 0 1 -6.44927-14.00581l-25.50131-25.03323 18.15524-3.90137 21.43308 24.3701a10.11027 10.11027 0 0 1 -7.63774 18.57031z" fill="#a0616a" transform="translate(-163.5 -185.66433)"/><path d="m328.02677 506.55052a4.62214 4.62214 0 0 1 -3.57593-1.67676l-27.83838-33.77442-21.78881-41.84472a13.83978 13.83978 0 0 1 2.06738-12.53809 13.28911 13.28911 0 0 1 11.02637-5.41016 17.42636 17.42636 0 0 1 3.21386.36817 13.31123 13.31123 0 0 1 9.56079 8.35254l18.45752 43.36328 22.12085 27.9043a4.639 4.639 0 0 1 -.72094 6.47461l-9.626 7.76269a4.59969 4.59969 0 0 1 -2.89671 1.01856z" fill="#ccc" transform="translate(-163.5 -185.66433)"/><path d="m1035.5 632.33567h-219a1 1 0 0 1 0-2h219a1 1 0 0 1 0 2z" fill="#ccc" transform="translate(-163.5 -185.66433)"/><path d="m842.88419 434.071v1.26468h-213.70019v-1.3235l1.15039-1.62749 67.75-95.6471a3.3846 3.3846 0 0 1 5.48974 0l45.43018 64.13727 32.33984-45.25486a3.38541 3.38541 0 0 1 5.48 0l54.91016 76.83336z" fill="#27ab5c" transform="translate(-163.5 -185.66433)"/><circle cx="465.24084" cy="159.89522" fill="#27ab5c" r="24.87333"/><path d="m976.61417 436.33567h-485a17.01916 17.01916 0 0 1 -17-17v-103a17.01917 17.01917 0 0 1 17-17h485a17.01917 17.01917 0 0 1 17 17v103a17.01916 17.01916 0 0 1 -17 17zm-485-135a15.017 15.017 0 0 0 -15 15v103a15.017 15.017 0 0 0 15 15h485a15.017 15.017 0 0 0 15-15v-103a15.017 15.017 0 0 0 -15-15z" fill="#3f3d56" transform="translate(-163.5 -185.66433)"/></svg>